<?xml version="1.0" encoding="utf-8"?>
<!-- Generator: Adobe Illustrator 26.3.1, SVG Export Plug-In . SVG Version: 6.00 Build 0)  -->
<svg version="1.1" id="Layer_1" xmlns="http://www.w3.org/2000/svg" xmlns:xlink="http://www.w3.org/1999/xlink" x="0px" y="0px"
	 viewBox="0 0 600 600" style="enable-background:new 0 0 600 600;" xml:space="preserve">
<style type="text/css">
	.st0{fill:#FFFFFF;}
	.st1{fill:#E94E1B;}
</style>
<g>
	<path class="st0" d="M540,600H60c-33.1,0-60-26.9-60-60V60C0,26.9,26.9,0,60,0h480c33.1,0,60,26.9,60,60v480
		C600,573.1,573.1,600,540,600z"/>
</g>
<g>
	<path class="st1" d="M314.6,189.5c19.5,19.5,51.2,19.5,70.7,0l70.7-70.7c19.5-19.5,19.5-51.2,0-70.7l0,0
		c-19.5-19.5-51.2-19.5-70.7,0l-70.7,70.7C295.1,138.3,295.1,169.9,314.6,189.5L314.6,189.5z"/>
	<path class="st1" d="M402,236.8H246.9V100c0-27.6-22.4-50-50-50h0c-27.6,0-50,22.4-50,50v136.8H80.7c-7.6,0-13.8,6.2-13.8,13.8V323
		c0,7.6,6.2,13.8,13.8,13.8h66.2V500c0,27.6,22.4,50,50,50h0c27.6,0,50-22.4,50-50V336.8h120V500c0,27.6,22.4,50,50,50h0
		c27.6,0,50-22.4,50-50V323v-21.3V300c0-4.4-0.6-8.6-1.6-12.7C458.7,258.4,432.9,236.8,402,236.8z"/>
</g>
</svg>
